<svg width="24" height="24" viewBox="0 0 24 24" fill="none" xmlns="http://www.w3.org/2000/svg">
<path d="M12 6.25C12.1989 6.25 12.3897 6.32902 12.5303 6.46967C12.671 6.61032 12.75 6.80109 12.75 7V13C12.75 13.1989 12.671 13.3897 12.5303 13.5303C12.3897 13.671 12.1989 13.75 12 13.75C11.8011 13.75 11.6103 13.671 11.4697 13.5303C11.329 13.3897 11.25 13.1989 11.25 13V7C11.25 6.80109 11.329 6.61032 11.4697 6.46967C11.6103 6.32902 11.8011 6.25 12 6.25ZM13 16C13 16.2652 12.8946 16.5196 12.7071 16.7071C12.5196 16.8946 12.2652 17 12 17C11.7348 17 11.4804 16.8946 11.2929 16.7071C11.1054 16.5196 11 16.2652 11 16C11 15.7348 11.1054 15.4804 11.2929 15.2929C11.4804 15.1054 11.7348 15 12 15C12.2652 15 12.5196 15.1054 12.7071 15.2929C12.8946 15.4804 13 15.7348 13 16Z" fill="black"/>
<path fill-rule="evenodd" clip-rule="evenodd" d="M12 1.25C11.295 1.25 10.652 1.444 9.949 1.77C9.269 2.087 8.48 2.553 7.495 3.137L6.741 3.583C5.755 4.167 4.968 4.633 4.361 5.079C3.733 5.541 3.251 6.013 2.903 6.632C2.555 7.25 2.398 7.911 2.323 8.695C2.25 9.455 2.25 10.386 2.25 11.556V12.444C2.25 13.614 2.25 14.544 2.323 15.304C2.398 16.089 2.555 16.75 2.903 17.368C3.252 17.987 3.733 18.459 4.361 18.921C4.968 19.367 5.755 19.833 6.741 20.417L7.495 20.863C8.48 21.447 9.268 21.913 9.949 22.23C10.652 22.556 11.295 22.75 12 22.75C12.705 22.75 13.348 22.556 14.051 22.23C14.731 21.913 15.52 21.447 16.505 20.863L17.259 20.417C18.245 19.833 19.032 19.367 19.639 18.921C20.267 18.459 20.749 17.987 21.097 17.368C21.445 16.75 21.602 16.089 21.677 15.305C21.75 14.545 21.75 13.614 21.75 12.445V11.556C21.75 10.386 21.75 9.456 21.677 8.696C21.602 7.911 21.445 7.25 21.097 6.632C20.748 6.013 20.267 5.541 19.639 5.079C19.032 4.633 18.245 4.167 17.259 3.583L16.505 3.137C15.52 2.553 14.732 2.087 14.051 1.77C13.348 1.444 12.705 1.25 12 1.25ZM8.225 4.447C9.252 3.839 9.976 3.412 10.581 3.131C11.171 2.857 11.591 2.75 12 2.75C12.41 2.75 12.83 2.857 13.42 3.13C14.024 3.412 14.748 3.84 15.775 4.447L16.461 4.854C17.488 5.462 18.211 5.891 18.751 6.288C19.277 6.675 19.581 6.998 19.789 7.368C19.999 7.739 20.119 8.174 20.184 8.838C20.249 9.518 20.25 10.378 20.25 11.594V12.406C20.25 13.622 20.25 14.481 20.184 15.161C20.12 15.826 19.999 16.261 19.789 16.632C19.581 17.002 19.277 17.325 18.751 17.712C18.211 18.109 17.488 18.538 16.461 19.146L15.775 19.553C14.748 20.161 14.024 20.588 13.419 20.869C12.829 21.143 12.409 21.25 12 21.25C11.59 21.25 11.17 21.143 10.58 20.87C9.976 20.588 9.252 20.16 8.225 19.553L7.539 19.146C6.512 18.538 5.789 18.109 5.249 17.712C4.723 17.325 4.419 17.002 4.211 16.632C4.001 16.261 3.88 15.826 3.816 15.162C3.751 14.482 3.75 13.622 3.75 12.406V11.594C3.75 10.378 3.75 9.519 3.816 8.839C3.88 8.174 4.001 7.739 4.21 7.368C4.419 6.998 4.723 6.675 5.25 6.288C5.79 5.891 6.512 5.462 7.54 4.854L8.225 4.447Z" fill="black"/>
</svg>
