<svg width="24" height="24" viewBox="0 0 24 24" fill="none" xmlns="http://www.w3.org/2000/svg">
<path d="M17.4429 11.1311L17.8407 10.7334L16.6473 9.54039L14.4613 7.35498L13.268 6.16198L12.8702 6.55965L12.0746 7.35498L5.0625 14.3652C4.6964 14.7312 4.42887 15.1852 4.28103 15.6814L3.03489 19.9185C2.94689 20.2141 3.02785 20.5343 3.24962 20.7525C3.47139 20.9707 3.7882 21.0516 4.0839 20.9672L8.31864 19.7214C8.81498 19.5736 9.26908 19.3061 9.63518 18.9401L16.6473 11.9299L17.4429 11.1311ZM8.63194 17.0574L8.3116 17.8562C8.1708 17.9653 8.01239 18.0463 7.84342 18.099L5.09066 18.9084L5.9003 16.16C5.94958 15.9875 6.03406 15.8292 6.14319 15.6919L6.94226 15.3717V16.4978C6.94226 16.8075 7.19571 17.0609 7.50549 17.0609H8.63194V17.0574ZM15.7673 3.65985L15.2604 4.17013L14.4648 4.96546L14.0635 5.36313L15.2569 6.55613L17.4429 8.74154L18.6362 9.93454L19.034 9.53688L19.8295 8.74154L20.34 8.23126C21.22 7.35147 21.22 5.9262 20.34 5.0464L18.9565 3.65985C18.0765 2.78005 16.6508 2.78005 15.7708 3.65985H15.7673ZM14.0987 9.57207L9.02971 14.6397C8.81146 14.8579 8.45241 14.8579 8.23416 14.6397C8.01591 14.4215 8.01591 14.0625 8.23416 13.8444L13.3032 8.77673C13.5214 8.55854 13.8805 8.55854 14.0987 8.77673C14.317 8.99492 14.317 9.35388 14.0987 9.57207Z" fill="black"/>
</svg>
